<svg xmlns="http://www.w3.org/2000/svg" viewBox="0 0 256 256" xml:space="preserve"><path fill="#EFEFEF" d="M247.67 60.62v151.464c0 5.52-4.48 10-10 10h-46.91v-4.15c0-2.61-.83-5.02-2.24-6.99 3.47-9.43 2.47-20.94-1.05-30.11l3.27-34.33c.32-3.62-3.06-6.45-6.55-5.49l-28.47 7.89a65.73 65.73 0 0 0-10.92-3.65c-10.91-2.65-22.58-2.69-33.6-.01-3.73.91-7.38 2.13-10.91 3.66l-28.47-7.89c-3.49-.96-6.88 1.87-6.56 5.49l3.28 34.33c-3.09 8.06-4.25 17.95-2.11 26.63a12.009 12.009 0 0 0-6.11 10.47v4.15H18.33c-5.52 0-10-4.48-10-10V60.62h239.34z"/><path fill="#FC5D3D" d="M237.667 26.615H18.333c-5.523 0-10 4.477-10 10V60.62h239.333V36.615c.001-5.523-4.476-10-9.999-10z"/><path fill="#F0C020" d="M128 76.964c-20.01 0-36.18 16.22-36.18 36.18 0 13.94 7.85 26.04 19.38 32.1 11.02-2.68 22.69-2.64 33.6.01 11.54-6.06 19.39-18.16 19.39-32.11 0-19.96-16.17-36.18-36.19-36.18z"/><path fill="#FFCBC3" d="M190.76 217.934v7.402h-24.09v-3.252H84.41v3.252H60.32v-7.402c0-4.49 2.46-8.41 6.11-10.47-2.14-8.68-.98-18.57 2.11-26.63l-3.28-34.33c-.32-3.62 3.07-6.45 6.56-5.49l28.47 7.89c3.53-1.53 7.18-2.75 10.91-3.66 11.02-2.68 22.69-2.64 33.6.01 3.75.9 7.41 2.12 10.92 3.65l28.47-7.89c3.49-.96 6.87 1.87 6.55 5.49l-3.27 34.33c3.52 9.17 4.52 20.68 1.05 30.11 1.41 1.97 2.24 4.38 2.24 6.99z"/><path fill="#EA8F7D" d="M152.298 190.605c0 10.417-10.877 12.63-24.295 12.63s-24.295-2.213-24.295-12.63c0-10.417 10.877-18.861 24.295-18.861s24.295 8.445 24.295 18.861z"/><path fill="#F0C020" d="M188.235 85.455c-3.683-1.217-7.487-2.281-9.623-11.48-1.967 8.473-5.118 9.992-9.623 11.48 7.347 2.428 8.455 6.447 9.623 11.48 2.013-8.676 5.343-10.066 9.623-11.48z"/><path d="M176.203 97.494c-1.067-4.599-1.771-7.637-7.989-9.691-2.259-.746-2.254-3.952 0-4.697 3.743-1.237 6.216-2.054 7.989-9.692.589-2.538 4.228-2.545 4.818 0 1.813 7.811 4.522 8.549 7.989 9.691 2.259.746 2.254 3.952 0 4.697-3.609 1.192-6.218 2.054-7.989 9.691-.591 2.552-4.225 2.552-4.818.001zm-1.414-11.982c1.78 1.222 2.996 2.618 3.872 4.094 1.061-1.875 2.29-3.166 3.659-4.128-1.313-.939-2.583-2.269-3.699-4.279-1.103 1.984-2.392 3.325-3.832 4.313z"/><path fill="#F0C020" d="M74.447 116.177c-3.683-1.217-7.487-2.281-9.623-11.48-1.967 8.473-5.118 9.992-9.623 11.48 7.347 2.428 8.455 6.447 9.623 11.48 2.014-8.676 5.344-10.066 9.623-11.48z"/><path d="M62.415 128.216c-1.067-4.599-1.771-7.637-7.989-9.691-2.259-.746-2.254-3.952 0-4.697 3.743-1.237 6.216-2.054 7.989-9.692.589-2.538 4.228-2.545 4.818 0 1.813 7.811 4.522 8.549 7.989 9.691 2.259.746 2.254 3.952 0 4.697-3.609 1.192-6.218 2.054-7.989 9.691-.591 2.551-4.225 2.552-4.818.001zm-1.413-11.983c1.78 1.222 2.996 2.618 3.872 4.094 1.061-1.875 2.29-3.166 3.659-4.128-1.313-.939-2.583-2.269-3.699-4.279-1.104 1.985-2.392 3.325-3.832 4.313z"/><path fill="#F0C020" d="M200.798 116.177c-3.683-1.217-7.487-2.281-9.623-11.48-1.967 8.473-5.118 9.992-9.623 11.48 7.347 2.428 8.455 6.447 9.623 11.48 2.013-8.676 5.343-10.066 9.623-11.48z"/><path d="M188.766 128.216c-1.067-4.599-1.771-7.637-7.989-9.691-2.259-.746-2.254-3.952 0-4.697 3.743-1.237 6.216-2.054 7.989-9.692.589-2.538 4.228-2.545 4.818 0 1.813 7.811 4.522 8.549 7.989 9.691 2.259.746 2.254 3.952 0 4.697-3.609 1.192-6.218 2.054-7.989 9.691-.592 2.551-4.226 2.552-4.818.001zm-1.414-11.983c1.78 1.222 2.996 2.618 3.872 4.094 1.061-1.875 2.29-3.166 3.659-4.128-1.313-.939-2.583-2.269-3.699-4.279-1.103 1.985-2.392 3.325-3.832 4.313z"/><path fill="#EA8F7D" d="M60.32 225.336v14.253l12.045-5.553 12.045 5.553v-14.253zM166.67 225.336v14.253l12.045-5.553 12.045 5.553v-14.253z"/><path fill="#FFF" d="M49.667 211.219H20a2.5 2.5 0 1 1 0-5h29.667a2.5 2.5 0 1 1 0 5z"/><path fill="#F9E5AF" d="M106.624 134.556a30.545 30.545 0 0 1-2.852-3.293 2.5 2.5 0 1 1 4.006-2.992 25.371 25.371 0 0 0 2.381 2.75 2.5 2.5 0 0 1-3.535 3.535zm-7.664-13.017a30.406 30.406 0 0 1-1.163-8.335c0-16.683 13.436-30.246 30.222-30.246 8.078 0 15.665 3.139 21.363 8.839.977.977.977 2.56 0 3.535a2.498 2.498 0 0 1-3.535 0c-4.755-4.755-11.086-7.374-17.828-7.374-13.986 0-25.222 11.288-25.222 25.246 0 2.361.327 4.704.972 6.964a2.5 2.5 0 0 1-4.809 1.371z"/><path fill="#FFF" d="M75 199.342a2.5 2.5 0 0 1-2.5-2.5c0-1.414.072-2.842.215-4.243a2.5 2.5 0 1 1 4.974.506 36.933 36.933 0 0 0-.189 3.737 2.5 2.5 0 0 1-2.5 2.5zm1.59-13.854a2.5 2.5 0 0 1-1.48-3.211c7.358-19.938 28.613-33.335 52.891-33.335a2.5 2.5 0 1 1 0 5c-22.193 0-41.563 12.082-48.199 30.065a2.501 2.501 0 0 1-3.212 1.481zM49.667 211.219H20a2.5 2.5 0 1 1 0-5h29.667a2.5 2.5 0 1 1 0 5z"/><path fill="#F9E5AF" d="M106.624 134.556a30.545 30.545 0 0 1-2.852-3.293 2.5 2.5 0 1 1 4.006-2.992 25.371 25.371 0 0 0 2.381 2.75 2.5 2.5 0 0 1-3.535 3.535zm-7.664-13.017a30.406 30.406 0 0 1-1.163-8.335c0-16.683 13.436-30.246 30.222-30.246 8.078 0 15.665 3.139 21.363 8.839.977.977.977 2.56 0 3.535a2.498 2.498 0 0 1-3.535 0c-4.755-4.755-11.086-7.374-17.828-7.374-13.986 0-25.222 11.288-25.222 25.246 0 2.361.327 4.704.972 6.964a2.5 2.5 0 0 1-4.809 1.371z"/><path d="M153.17 26.62a2.5 2.5 0 0 0-5 0c0 1.37 1.12 2.489 2.5 2.489s2.5-1.119 2.5-2.489z"/><path d="M250.17 212.084V36.609c0-6.89-5.61-12.489-12.5-12.489h-16.503v-7.709a2.5 2.5 0 1 0-5 0v7.709h-40.334v-7.709a2.5 2.5 0 1 0-5 0v7.709H160.67a2.5 2.5 0 0 0-2.5 2.5c0 1.37 1.12 2.5 2.5 2.5l10.163-.001v6.042a2.5 2.5 0 1 0 5 0v-6.043l40.334-.006v6.049a2.5 2.5 0 1 0 5 0v-6.049l16.503-.002c4.12.011 7.49 3.381 7.5 7.5v21.51H10.83V36.61c.01-4.119 3.37-7.489 7.5-7.5h16.503v6.052a2.5 2.5 0 1 0 5 0V29.11h40.334v6.052a2.5 2.5 0 1 0 5 0V29.11H125.5v6.052a2.5 2.5 0 1 0 5 0V29.11h10.17c1.38 0 2.5-1.119 2.5-2.489a2.5 2.5 0 0 0-2.5-2.5H130.5v-7.709a2.5 2.5 0 1 0-5 0v7.709H85.167v-7.709a2.5 2.5 0 1 0-5 0v7.709H39.833v-7.709a2.5 2.5 0 1 0-5 0v7.709H18.33c-6.891 0-12.5 5.6-12.5 12.489v175.475c0 6.893 5.607 12.5 12.5 12.5h39.49v15.005c0 1.824 1.893 3.032 3.547 2.271l10.998-5.071 10.998 5.071c1.653.761 3.547-.448 3.547-2.271v-14.999h77.26v14.999c0 1.821 1.889 3.033 3.547 2.271l10.998-5.071 10.998 5.071c1.654.761 3.547-.445 3.547-2.271v-15.005h44.41c6.893-.001 12.5-5.608 12.5-12.501zM67.74 146.029c0-1.609 1.513-3.089 3.409-2.609l22.166 6.143c-9.786 5.443-17.806 13.138-23.135 22.146-.02-.214-2.44-25.465-2.44-25.68zm3.119 35.732.016-.034c7.73-20.46 30.038-35.878 56.792-35.993 25.27-.108 49.05 13.725 57.464 35.993.009.024.022.044.032.068 2.837 7.455 3.919 16.493 2.135 24.428-9.565-7.056-23.127-.154-23.127 11.711v1.655H86.91v-1.655c0-8.018-6.522-14.54-14.54-14.54-1.386 0-2.759.206-4.075.589-1.169-7.49.003-15.543 2.564-22.222zm73.559-39.16c-10.714-2.447-22.167-2.449-32.837-.012a33.65 33.65 0 0 1-17.261-29.44c0-18.571 15.108-33.68 33.68-33.68 18.577 0 33.69 15.108 33.69 33.68a33.656 33.656 0 0 1-17.272 29.452zm24.752 75.333c0-5.261 4.284-9.54 9.55-9.54 5.28 0 9.54 4.299 9.54 9.54v4.902h-19.09v-4.902zm-96.8-9.54c5.261 0 9.54 4.279 9.54 9.54v4.902H62.82v-4.902c0-5.283 4.31-9.54 9.55-9.54zm9.54 27.29-8.498-3.919a2.503 2.503 0 0 0-2.094 0l-8.498 3.919v-7.848h19.09v7.848zm106.35 0-8.498-3.919a2.503 2.503 0 0 0-2.094 0l-8.498 3.919v-7.848h19.09v7.848zm49.41-16.1h-44.41c0-2.011.215-5.21-1.984-8.969 3.084-9.467 2.221-20.711-1.266-30.125l1.11-11.58c.13-1.37-.88-2.601-2.25-2.721-1.38-.14-2.59.87-2.73 2.23v.02l-.312 3.273c-5.329-9.01-13.349-16.706-23.136-22.149l22.168-6.143c1.971-.497 3.545 1.127 3.391 2.859l-.22 2.25c-.131 1.37.89 2.591 2.26 2.73 1.399.14 2.59-.89 2.72-2.26.011-.109.22-2.221.22-2.33.589-4.6-4.027-9.595-9.71-8.07l-27.62 7.66a69.143 69.143 0 0 0-5.02-1.871c9.868-7.231 15.811-18.744 15.811-31.241 0-21.328-17.356-38.68-38.69-38.68-21.328 0-38.68 17.352-38.68 38.68 0 12.494 5.944 24.006 15.812 31.237a68.99 68.99 0 0 0-5.013 1.874l-27.63-7.66c-5.42-1.431-10.178 2.989-9.721 8.13l3.22 33.772c-2.96 8.015-4.023 17.328-2.359 25.815a14.546 14.546 0 0 0-5.811 11.619v1.65H18.33c-4.136 0-7.5-3.364-7.5-7.5V63.12h234.34v148.964c0 4.136-3.364 7.5-7.5 7.5z"/><path d="M131.488 110.676h-6.97a3.764 3.764 0 0 1-3.759-3.759c0-2.177 1.823-3.816 3.805-3.759h6.669c1.733.013 3.408.957 4.371 2.463a2.501 2.501 0 0 0 4.213-2.693c-1.894-2.961-5.089-4.744-8.565-4.77h-.749v-3.572a2.5 2.5 0 1 0-5 0v3.572h-.92a8.753 8.753 0 0 0-8.823 8.759c0 4.83 3.929 8.759 8.759 8.759h6.97a3.764 3.764 0 0 1 3.759 3.759 3.757 3.757 0 0 1-3.776 3.759h-7.306c-1.515-.011-2.967-.718-3.983-1.938a2.5 2.5 0 1 0-3.841 3.201c1.961 2.354 4.8 3.716 7.807 3.737h1.357v3.572a2.5 2.5 0 1 0 5 0v-3.572h.986a8.754 8.754 0 0 0 8.758-8.759c-.003-4.831-3.932-8.759-8.762-8.759zM119.904 190.994a2.5 2.5 0 0 0 2.5-2.5v-.252a2.5 2.5 0 1 0-5 0v.252a2.5 2.5 0 0 0 2.5 2.5zM136.102 190.994a2.5 2.5 0 0 0 2.5-2.5v-.252a2.5 2.5 0 1 0-5 0v.252a2.5 2.5 0 0 0 2.5 2.5zM97.308 175.583a2.5 2.5 0 0 0 2.5-2.5v-2.434a2.5 2.5 0 1 0-5 0v2.434a2.5 2.5 0 0 0 2.5 2.5zM160.975 175.583a2.5 2.5 0 0 0 2.5-2.5v-2.434a2.5 2.5 0 1 0-5 0v2.434a2.5 2.5 0 0 0 2.5 2.5z"/><path d="M92.477 190.805c7.636 0 13.196 7.344 11.065 14.729a2.5 2.5 0 1 0 4.802 1.388c.397-1.374.605-2.798.637-4.234 6.271 3.043 14.728 3.048 19.022 3.048 4.294 0 12.75-.005 19.021-3.047.029 1.3.202 2.591.53 3.843a2.5 2.5 0 1 0 4.836-1.272c-1.927-7.324 3.63-14.455 11.141-14.455a2.5 2.5 0 1 0 0-5c-3.266 0-6.306.965-8.872 2.607-1.382-10.752-12.809-19.168-26.655-19.168-13.846 0-25.273 8.417-26.654 19.168a16.399 16.399 0 0 0-8.872-2.608 2.5 2.5 0 0 0-.001 5.001zm35.526-16.561c12.019 0 21.796 7.34 21.796 16.361 0 9.225-11.792 10.13-21.796 10.13-10.101 0-21.795-.952-21.795-10.13 0-9.021 9.777-16.361 21.795-16.361zM189.81 156.229c-1.39-.13-2.59.88-2.72 2.25-.157 1.493 1.046 2.74 2.49 2.74a2.48 2.48 0 0 0 2.479-2.26 2.503 2.503 0 0 0-2.249-2.73z"/><g><path fill="#FFF" d="M235 211.219h-18.522a2.5 2.5 0 1 1 0-5H232.5V73.241a2.5 2.5 0 1 1 5 0v135.478a2.5 2.5 0 0 1-2.5 2.5zm-28.522 0h-4.811a2.5 2.5 0 1 1 0-5h4.811a2.5 2.5 0 1 1 0 5z"/></g></svg>